<svg width="541" height="541" viewBox="0 0 541 541" fill="none" xmlns="http://www.w3.org/2000/svg">
<path d="M384.956 176.247L219.284 341.914L156.408 279.026C152.204 274.817 145.389 274.817 141.185 279.015C136.981 283.225 136.981 290.039 141.185 294.243L219.29 372.364L400.179 191.464C404.383 187.271 404.383 180.451 400.179 176.247C395.975 172.037 389.16 172.037 384.956 176.247ZM270.674 0.664856C121.882 0.664856 0.838867 121.714 0.838867 270.484C0.849633 419.275 121.898 540.329 270.685 540.329H270.706C419.476 540.329 540.509 419.275 540.509 270.484C540.509 121.708 419.466 0.664856 270.674 0.664856ZM270.706 518.798H270.685C133.773 518.798 22.3809 407.406 22.3701 270.484C22.3701 133.577 133.757 22.1961 270.674 22.1961C407.591 22.1961 518.978 133.583 518.978 270.484C518.978 407.406 407.607 518.798 270.706 518.798Z" fill="black"/>
</svg>
