<svg width="73" height="78" viewBox="0 0 73 78" fill="none" xmlns="http://www.w3.org/2000/svg">
<path d="M67.0938 11.1875H50.4062V8.40625C50.4062 3.80606 46.6627 0.0625 42.0625 0.0625H30.9375C26.3373 0.0625 22.5938 3.80606 22.5938 8.40625V11.1875H5.90625C2.83853 11.1875 0.34375 13.6823 0.34375 16.75V19.5312C0.34375 21.0665 1.58975 22.3125 3.125 22.3125H69.875C71.4102 22.3125 72.6562 21.0665 72.6562 19.5312V16.75C72.6562 13.6823 70.1615 11.1875 67.0938 11.1875ZM28.1562 8.40625C28.1562 6.87378 29.405 5.625 30.9375 5.625H42.0625C43.595 5.625 44.8438 6.87378 44.8438 8.40625V11.1875H28.1562V8.40625Z" fill="black"/>
<path d="M8.6875 27.875V69.5938C8.6875 74.1939 12.4311 77.9375 17.0312 77.9375H55.9688C60.5689 77.9375 64.3125 74.1939 64.3125 69.5938V27.875H8.6875ZM46.8101 56.5024C47.8976 57.5899 47.8976 59.3476 46.8101 60.4351C45.7226 61.5226 43.9649 61.5226 42.8774 60.4351L36.5 54.0577L30.1226 60.4351C29.0351 61.5226 27.2774 61.5226 26.1899 60.4351C25.1024 59.3476 25.1024 57.5899 26.1899 56.5024L32.5673 50.125L26.1899 43.7476C25.1024 42.6601 25.1024 40.9024 26.1899 39.8149C27.2774 38.7274 29.0351 38.7274 30.1226 39.8149L36.5 46.1923L42.8774 39.8149C43.9649 38.7274 45.7226 38.7274 46.8101 39.8149C47.8976 40.9024 47.8976 42.6601 46.8101 43.7476L40.4327 50.125L46.8101 56.5024Z" fill="black"/>
</svg>
