<svg width="128" height="128" viewBox="0 0 128 128" fill="none" xmlns="http://www.w3.org/2000/svg">
<path d="M128 120C128 124.416 124.416 128 120 128H8C3.584 128 0 124.416 0 120V8C0 3.584 3.584 0 8 0H120C124.416 0 128 3.584 128 8V120Z" fill="#55ACEE"/>
<path d="M103.948 39.576C101.004 40.864 97.848 41.724 94.52 42.116C97.92 40.124 100.52 36.96 101.744 33.192C98.576 35.036 95.064 36.38 91.324 37.104C88.332 33.964 84.068 32 79.352 32C70.288 32 62.952 39.228 62.952 48.152C62.952 49.408 63.096 50.652 63.368 51.84C49.74 51.152 37.652 44.724 29.56 34.956C28.152 37.344 27.336 40.116 27.336 43.084C27.336 48.68 30.24 53.624 34.632 56.524C31.948 56.436 29.416 55.712 27.208 54.5C27.204 54.568 27.204 54.636 27.204 54.708C27.204 62.528 32.86 69.064 40.364 70.548C38.992 70.908 37.544 71.116 36.04 71.116C34.984 71.116 33.96 71.02 32.96 70.828C35.04 77.244 41.096 81.912 48.272 82.048C42.68 86.376 35.6 88.96 27.916 88.96C26.596 88.96 25.284 88.888 24 88.736C31.256 93.316 39.884 95.988 49.148 95.988C79.312 95.988 95.812 71.372 95.812 50.024C95.812 49.332 95.792 48.624 95.764 47.94C98.964 45.656 101.752 42.812 103.948 39.576Z" fill="white"/>
</svg>
